<svg width="33" height="36" viewBox="0 0 33 36" fill="none" xmlns="http://www.w3.org/2000/svg">
<path d="M17.6211 0.000178241C14.5596 0.00166713 11.5512 0.800385 8.89216 2.31771C6.23311 3.83503 4.01502 6.01864 2.45624 8.65361C0.897465 11.2886 0.0517329 14.284 0.00229892 17.3451C-0.0471351 20.4062 0.701433 23.4275 2.17432 26.1114C3.6472 28.7953 5.79362 31.0494 8.40229 32.6518C11.011 34.2542 13.9919 35.1496 17.0518 35.25C20.1117 35.3503 23.1449 34.6521 25.853 33.2241C28.561 31.796 30.8505 29.6874 32.4961 27.1057L26.5461 23.3594C25.2999 25.2672 23.4709 26.7216 21.3315 27.506C19.192 28.2904 16.8564 28.363 14.6724 27.7129C12.4884 27.0628 10.5727 25.7248 9.21048 23.898C7.84828 22.0713 7.11241 19.8534 7.11241 17.5747C7.11241 15.296 7.84828 13.0782 9.21048 11.2514C10.5727 9.42468 12.4884 8.08666 14.6724 7.43655C16.8564 6.78644 19.192 6.859 21.3315 7.64343C23.4709 8.42786 25.2999 9.88221 26.5461 11.79L32.4961 8.0437C30.8894 5.5638 28.6851 3.52753 26.0859 2.12203C23.4867 0.716529 20.5759 -0.0131075 17.6211 0.000178241Z" fill="url(#paint0_linear_1_269)"/>
<defs>
<linearGradient id="paint0_linear_1_269" x1="0" y1="0" x2="35.1423" y2="32.3881" gradientUnits="userSpaceOnUse">
<stop stop-color="#1D4ED8"/>
<stop offset="1" stop-color="#7C3AED"/>
</linearGradient>
</defs>
</svg>
